<svg  viewBox="0 0 29 30" xmlns="http://www.w3.org/2000/svg">
<path d="M5.65789 13.5L13.7632 0L21.8684 13.5H5.65789ZM21.8684 30C20.0263 30 18.4608 29.344 17.1718 28.032C15.8828 26.72 15.2378 25.126 15.2368 23.25C15.2359 21.374 15.8808 19.7805 17.1718 18.4695C18.4627 17.1585 20.0283 16.502 21.8684 16.5C23.7086 16.498 25.2746 17.1545 26.5665 18.4695C27.8584 19.7845 28.5029 21.378 28.5 23.25C28.497 25.122 27.8526 26.716 26.5665 28.032C25.2805 29.348 23.7144 30.004 21.8684 30ZM0.5 29.25V17.25H12.2895V29.25H0.5Z"/>
</svg>
