<svg width="80" height="20" viewBox="0 0 20 17" fill="none" xmlns="http://www.w3.org/2000/svg">
<path fill-rule="evenodd" clip-rule="evenodd" d="M18.9241 0.518327C19.1963 0.849934 19.3492 1.29963 19.3492 1.76852C19.3492 2.23741 19.1963 2.68711 18.9241 3.01872L8.04101 16.2728C7.89718 16.448 7.72643 16.587 7.5385 16.6818C7.35057 16.7766 7.14915 16.8254 6.94573 16.8254C6.74231 16.8254 6.54088 16.7766 6.35295 16.6818C6.16502 16.587 5.99427 16.448 5.85045 16.2728L0.443273 9.68878C0.304594 9.52566 0.193979 9.33054 0.117882 9.1148C0.0417849 8.89906 0.00173014 8.66702 5.48219e-05 8.43222C-0.0016205 8.19743 0.0351172 7.96458 0.108124 7.74726C0.181131 7.52994 0.288945 7.3325 0.425276 7.16647C0.561606 7.00044 0.723722 6.86914 0.902165 6.78023C1.08061 6.69132 1.2718 6.64657 1.4646 6.64861C1.65739 6.65065 1.84792 6.69944 2.02507 6.79211C2.20221 6.88479 2.36243 7.0195 2.49637 7.18839L6.94524 12.6065L16.87 0.518327C17.0049 0.354004 17.165 0.22365 17.3412 0.134713C17.5174 0.0457761 17.7063 0 17.8971 0C18.0878 0 18.2767 0.0457761 18.4529 0.134713C18.6291 0.22365 18.7892 0.354004 18.9241 0.518327Z" fill="#76AD30"/>
</svg>
