<svg width="80" height="25" viewBox="0 0 25 18" fill="none" xmlns="http://www.w3.org/2000/svg">
<path fill-rule="evenodd" clip-rule="evenodd" d="M22.7654 5.20693C22.9156 5.38501 23 5.62651 23 5.87832C23 6.13013 22.9156 6.37163 22.7654 6.54971L16.7592 13.6675C16.6798 13.7616 16.5855 13.8362 16.4818 13.8872C16.3781 13.9381 16.2669 13.9643 16.1547 13.9643C16.0424 13.9643 15.9313 13.9381 15.8275 13.8872C15.7238 13.8362 15.6296 13.7616 15.5502 13.6675L12.5661 10.1317C12.4895 10.0441 12.4285 9.93933 12.3865 9.82347C12.3445 9.70762 12.3224 9.58301 12.3215 9.45691C12.3205 9.33082 12.3408 9.20577 12.3811 9.08907C12.4214 8.97236 12.4809 8.86633 12.5561 8.77717C12.6314 8.68801 12.7208 8.61749 12.8193 8.56975C12.9178 8.522 13.0233 8.49797 13.1297 8.49907C13.2361 8.50016 13.3413 8.52636 13.439 8.57613C13.5368 8.6259 13.6252 8.69824 13.6991 8.78894L16.1544 11.6986L21.6318 5.20693C21.7062 5.11868 21.7945 5.04868 21.8918 5.00092C21.9891 4.95315 22.0933 4.92857 22.1986 4.92857C22.3039 4.92857 22.4081 4.95315 22.5054 5.00092C22.6026 5.04868 22.691 5.11868 22.7654 5.20693Z" fill="#D1FF96"/>
<path fill-rule="evenodd" clip-rule="evenodd" d="M19.4255 2.81856C19.6104 3.04521 19.7143 3.35257 19.7143 3.67305C19.7143 3.99354 19.6104 4.3009 19.4255 4.52755L12.0332 13.5866C11.9356 13.7063 11.8196 13.8013 11.6919 13.8661C11.5643 13.9309 11.4275 13.9643 11.2893 13.9643C11.1511 13.9643 11.0143 13.9309 10.8866 13.8661C10.759 13.8013 10.643 13.7063 10.5453 13.5866L6.87252 9.08648C6.77832 8.97499 6.70319 8.84162 6.6515 8.69416C6.59981 8.54671 6.5726 8.38811 6.57147 8.22763C6.57033 8.06715 6.59528 7.908 6.64487 7.75946C6.69446 7.61093 6.76769 7.47598 6.8603 7.3625C6.9529 7.24902 7.06301 7.15928 7.18422 7.09851C7.30543 7.03774 7.4353 7.00716 7.56625 7.00855C7.6972 7.00995 7.82662 7.04329 7.94695 7.10663C8.06727 7.16997 8.1761 7.26205 8.26708 7.37748L11.289 11.0807L18.0303 2.81856C18.1219 2.70624 18.2307 2.61715 18.3503 2.55636C18.47 2.49557 18.5983 2.46429 18.7279 2.46429C18.8575 2.46429 18.9858 2.49557 19.1055 2.55636C19.2252 2.61715 19.3339 2.70624 19.4255 2.81856Z" fill="#9DE73F"/>
<path fill-rule="evenodd" clip-rule="evenodd" d="M15.2642 0.430187C15.4838 0.705405 15.6071 1.07863 15.6071 1.46779C15.6071 1.85695 15.4838 2.23017 15.2642 2.50539L6.48591 13.5056C6.3699 13.6511 6.23217 13.7664 6.08058 13.8451C5.929 13.9238 5.76653 13.9643 5.60245 13.9643C5.43837 13.9643 5.2759 13.9238 5.12432 13.8451C4.97273 13.7664 4.835 13.6511 4.71899 13.5056L0.357545 8.04123C0.245686 7.90585 0.156464 7.74391 0.0950839 7.56485C0.0337038 7.3858 0.00139554 7.19322 4.42195e-05 6.99835C-0.0013071 6.80348 0.0283257 6.61022 0.0872133 6.42986C0.146101 6.2495 0.233064 6.08563 0.343029 5.94783C0.452993 5.81004 0.583757 5.70106 0.72769 5.62727C0.871623 5.55348 1.02584 5.51634 1.18135 5.51804C1.33686 5.51973 1.49054 5.56022 1.63343 5.63713C1.77631 5.71405 1.90555 5.82585 2.01358 5.96603L5.60206 10.4628L13.6074 0.430187C13.7162 0.293806 13.8453 0.185619 13.9875 0.111805C14.1296 0.037992 14.282 0 14.4358 0C14.5897 0 14.7421 0.037992 14.8842 0.111805C15.0263 0.185619 15.1555 0.293806 15.2642 0.430187Z" fill="#76AD30"/>
<path d="M17.2222 18V16.8889H19.4444V15.1667C18.9907 15.0648 18.5857 14.8728 18.2294 14.5906C17.8731 14.3083 17.6115 13.9541 17.4444 13.5278C16.75 13.4444 16.1691 13.1413 15.7017 12.6183C15.2343 12.0954 15.0004 11.4819 15 10.7778V9.11111H17.2222V8H22.7778V9.11111H25V10.7778C25 11.4815 24.7661 12.095 24.2983 12.6183C23.8306 13.1417 23.2496 13.4448 22.5556 13.5278C22.3889 13.9537 22.1274 14.308 21.7711 14.5906C21.4148 14.8731 21.0096 15.0652 20.5556 15.1667V16.8889H22.7778V18H17.2222ZM17.2222 12.3333V10.2222H16.1111V10.7778C16.1111 11.1296 16.213 11.4469 16.4167 11.7294C16.6204 12.012 16.8889 12.2133 17.2222 12.3333ZM22.7778 12.3333C23.1111 12.213 23.3796 12.0115 23.5833 11.7289C23.787 11.4463 23.8889 11.1293 23.8889 10.7778V10.2222H22.7778V12.3333Z" fill="#C9BF00"/>
</svg>
