<svg width="31" height="30" viewBox="0 0 31 30" xmlns="http://www.w3.org/2000/svg">
<path d="M29.6894 21.8993C30.2312 22.5269 30.2312 23.5445 29.6894 24.1721L25.0651 29.5282C24.1974 30.5333 22.6968 29.8289 22.6968 28.3917V25.7143H19.2988C19.2037 25.7143 19.1095 25.6916 19.0223 25.6477C18.9351 25.6038 18.8566 25.5396 18.7917 25.459L14.7132 20.3968L17.7961 16.5703L20.8471 20.3571H22.6968V17.6798C22.6968 16.2443 24.1964 15.5371 25.0651 16.5434L29.6894 21.8993ZM1.19365 9.64286H6.0492L9.10016 13.4298L12.183 9.60322L8.1046 4.54098C8.03969 4.46043 7.96118 4.39619 7.87394 4.35228C7.7867 4.30837 7.6926 4.28571 7.59748 4.28571H1.19365C0.810582 4.28571 0.5 4.64551 0.5 5.08928V8.83929C0.5 9.28306 0.810582 9.64286 1.19365 9.64286ZM22.6968 9.64286V12.3204C22.6968 13.7574 24.1974 14.4619 25.0651 13.4568L29.6894 8.10074C30.2312 7.47308 30.2312 6.45549 29.6894 5.8279L25.0651 0.472028C24.1964 -0.534312 22.6968 0.172898 22.6968 1.60841V4.28571H19.2988C19.2037 4.28571 19.1095 4.30837 19.0223 4.35228C18.9351 4.39619 18.8566 4.46043 18.7917 4.54098L6.0492 20.3571H1.19365C0.810582 20.3571 0.5 20.7169 0.5 21.1607V24.9107C0.5 25.3545 0.810582 25.7143 1.19365 25.7143H7.59748C7.78974 25.7143 7.97338 25.6218 8.1046 25.459L20.8471 9.64286H22.6968Z" />
</svg>
