<svg width="80" height="20" viewBox="0 0 17 17" fill="none" xmlns="http://www.w3.org/2000/svg">
<path d="M16.4709 14.7711C16.6966 14.9968 16.8234 15.3029 16.8234 15.622C16.8234 15.9412 16.6966 16.2473 16.4709 16.4729C16.2452 16.6986 15.9391 16.8254 15.6199 16.8254C15.3008 16.8254 14.9947 16.6986 14.769 16.4729L8.4127 10.115L2.05443 16.4709C1.82874 16.6966 1.52263 16.8234 1.20346 16.8234C0.884281 16.8234 0.578177 16.6966 0.352485 16.4709C0.126793 16.2453 3.36307e-09 15.9392 0 15.62C-3.36307e-09 15.3009 0.126793 14.9948 0.352485 14.7691L6.71075 8.4132L0.354487 2.05531C0.128795 1.82963 0.00200233 1.52354 0.00200233 1.20439C0.00200234 0.885229 0.128795 0.579143 0.354487 0.353465C0.580179 0.127786 0.886283 0.00100092 1.20546 0.00100092C1.52464 0.00100091 1.83074 0.127786 2.05643 0.353465L8.4127 6.71135L14.771 0.352463C14.9967 0.126785 15.3028 -5.31717e-09 15.6219 0C15.9411 5.31717e-09 16.2472 0.126785 16.4729 0.352463C16.6986 0.578142 16.8254 0.884228 16.8254 1.20339C16.8254 1.52254 16.6986 1.82863 16.4729 2.05431L10.1146 8.4132L16.4709 14.7711Z" fill="#AD5B18"/>
</svg>
